<svg width="16" height="16" viewBox="0 0 16 16" fill="none" xmlns="http://www.w3.org/2000/svg">
<circle cx="11.332" cy="6" r="2" fill="#262626"/>
<circle cx="4.66797" cy="6" r="2" fill="#262626"/>
<path d="M11.332 8.66602C12.9634 8.66627 13.6167 10.2961 13.8623 11.2764C13.9581 11.6589 13.6561 11.999 13.2617 11.999H11.71C11.4413 10.9929 10.9224 9.85135 9.91797 9.19922C10.2793 8.88027 10.7415 8.66602 11.332 8.66602Z" fill="#262626"/>
<path d="M4.66628 8.66602C5.25632 8.66602 5.71718 8.88072 6.07839 9.19922C5.07466 9.85151 4.55594 10.9933 4.28737 11.999H2.73659C2.34217 11.999 2.03921 11.659 2.13503 11.2764C2.38058 10.2961 3.0346 8.66607 4.66628 8.66602Z" fill="#262626"/>
<circle cx="7.9987" cy="5.99967" r="2.66667" fill="white"/>
<path d="M8.0013 9.33301C10.4737 9.33301 11.1123 11.5337 11.2772 12.6704C11.3301 13.0348 11.0362 13.333 10.668 13.333H5.33463C4.96644 13.333 4.67253 13.0348 4.72539 12.6704C4.89031 11.5337 5.52886 9.33301 8.0013 9.33301Z" fill="white"/>
</svg>
