<svg width="16" height="16" viewBox="0 0 16 16" fill="none" xmlns="http://www.w3.org/2000/svg">
<path d="M2.96842 9.27149L7.60349 13.6257C7.76316 13.7756 7.84299 13.8506 7.93711 13.8691C7.9795 13.8774 8.0231 13.8774 8.06549 13.8691C8.15962 13.8506 8.23945 13.7756 8.39911 13.6257L13.0342 9.27149C14.3383 8.04641 14.4967 6.03042 13.3998 4.61673L13.1936 4.35091C11.8815 2.65974 9.24772 2.94336 8.32575 4.87512C8.19551 5.14799 7.80709 5.14799 7.67686 4.87512C6.75488 2.94336 4.12112 2.65974 2.809 4.35091L2.60276 4.61673C1.50593 6.03042 1.6643 8.04641 2.96842 9.27149Z" fill="white" stroke="#262626" stroke-width="1.33333"/>
</svg>
