<svg width="24" height="24" viewBox="0 0 24 24" fill="none" xmlns="http://www.w3.org/2000/svg">
<circle cx="17" cy="9" r="3" fill="#262626"/>
<circle cx="7" cy="9" r="3" fill="#262626"/>
<path d="M17.001 13C19.4488 13.0001 20.4296 15.4456 20.7979 16.916C20.9416 17.4899 20.4871 18 19.8955 18H17.5693C17.1663 16.4903 16.3865 14.778 14.8789 13.7998C15.421 13.321 16.1147 13 17.001 13Z" fill="#262626"/>
<path d="M6.99942 13C7.88537 13 8.57846 13.3212 9.12051 13.7998C7.61342 14.7781 6.83405 16.4906 6.43106 18H4.10488C3.51326 18 3.05882 17.4899 3.20254 16.916C3.57079 15.4456 4.55165 13.0001 6.99942 13Z" fill="#262626"/>
<circle cx="12" cy="9" r="4" fill="#FFC117"/>
<path d="M12 14C15.7087 14 16.6665 17.301 16.9139 19.0061C16.9932 19.5526 16.5523 20 16 20H8C7.44772 20 7.00684 19.5526 7.08614 19.0061C7.33351 17.301 8.29134 14 12 14Z" fill="#FFC117"/>
</svg>
