<svg xmlns="http://www.w3.org/2000/svg" width="24" height="20" viewBox="0 0 24 20" fill="none">
  <path fill-rule="evenodd" clip-rule="evenodd" d="M9.41041 0.515562C9.6008 0.950746 9.40236 1.45788 8.96718 1.64827L1.83735 4.76757V17.1893L7.7809 14.4156C8.21135 14.2147 8.72313 14.4008 8.92401 14.8313C9.12488 15.2617 8.93878 15.7735 8.50833 15.9744L1.34099 19.3191C1.07461 19.4435 0.763196 19.4231 0.515255 19.2652C0.267313 19.1073 0.117188 18.8337 0.117188 18.5398V4.20506C0.117188 3.86335 0.319473 3.55405 0.632532 3.41709L8.2777 0.0723289C8.71289 -0.118064 9.22002 0.0803782 9.41041 0.515562Z" fill="#F24744"/>
  <circle cx="3.84237" cy="10.4166" r="0.955646" fill="#F24744"/>
  <path d="M17.2227 0C17.6976 2.14696e-05 18.083 0.385355 18.083 0.860352V6H16.3623V1.71973H9.48145V14.335H16.3623V10H18.083V15.1943C18.083 15.6693 17.6976 16.0547 17.2227 16.0547H8.62207C8.14706 16.0547 7.76172 15.6693 7.76172 15.1943V0.860352C7.76172 0.385342 8.14706 0 8.62207 0H17.2227Z" fill="#F24744"/>
  <path d="M16 7.82259H23.1673M23.1673 7.82259L19.3448 4M23.1673 7.82259L19.3448 11.6452" stroke="#F24744" stroke-width="1.72016" stroke-linecap="round" stroke-linejoin="round"/>
</svg>