<svg width="120" height="27" viewBox="0 0 120 27" fill="none" xmlns="http://www.w3.org/2000/svg">
<g clip-path="url(#clip0_4711_52575)">
<path d="M41.9596 20.7022L39.454 22.1494H30.1876V7.02941H39.454L41.9596 8.47661V20.7022ZM33.2116 9.62141V19.5574H38.9356V9.62141H33.2116ZM55.4142 20.8102L52.9086 22.2574H48.3078L45.8022 20.8102V12.6886L48.3078 11.2414H52.9086L55.4142 12.6886V20.8102ZM48.7614 13.7686V19.7302H52.455V13.7686H48.7614ZM61.9976 13.8766V19.6222H67.3544V22.1494H61.544L59.0384 20.7022V12.7966L61.544 11.3494H67.3544V13.8766H61.9976ZM69.6808 13.8766V11.3494H71.668V9.53501L74.6272 7.82861V11.3494H77.0032V13.8766H74.6272V19.6222H77.0032V22.1494H74.1736L71.668 20.7022V13.8766H69.6808ZM83.1542 22.1494H80.195V6.38141H83.1542V12.127L84.6878 11.2414H87.5174L90.023 12.6886V22.1494H87.0638V13.7686H83.1542V22.1494ZM100.338 13.8766H96.6224V22.1494H93.6632V11.3494H96.104L96.6224 12.235L98.156 11.3494H100.338V13.8766ZM102.891 20.8102V11.3494H105.851V19.7302H109.544V11.3494H112.504V22.2574H110.063L109.544 21.3718L108.011 22.2574H105.397L102.891 20.8102Z" fill="#525252"/>
<rect x="5.39844" y="3.375" width="17.55" height="20.25" rx="1.35" fill="#262626"/>
<path d="M16.5359 10.125L18.8984 13.0781L16.5359 16.0312" stroke="#FFC117" stroke-width="1.62"/>
<path d="M11.8117 10.125L9.44922 13.0781L11.8117 16.0312" stroke="#FFC117" stroke-width="1.62"/>
</g>
<defs>
<clipPath id="clip0_4711_52575">
<rect width="120" height="27" fill="white"/>
</clipPath>
</defs>
</svg>
